<?xml version="1.0" encoding="UTF-8" standalone="no"?>
<!-- Created with Inkscape (http://www.inkscape.org/) -->

<svg
   width="250.00002"
   height="60"
   viewBox="0 0 66.145821 15.874997"
   version="1.1"
   id="svg1"
   xmlns="http://www.w3.org/2000/svg"
   xmlns:svg="http://www.w3.org/2000/svg">
  <defs
     id="defs1" />
  <g
     id="layer1">
    <g
       id="text1"
       style="font-size:53.3333px;font-family:Montserrat;-inkscape-font-specification:Montserrat;white-space:pre;fill:#2b1100"
       transform="matrix(0.26458333,0,0,0.26458333,5.5593286,2.5526697)"
       aria-label="RNAtango">
      <path
         style="font-weight:bold;-inkscape-font-specification:'Montserrat Bold'"
         d="m 11.411376,23.981807 c 4.85333,-2.079999 7.68,-6.186663 7.68,-11.78666 0,-8.3733278 -6.24,-13.5466578 -16.2133307,-13.5466578 H -13.281944 V 35.9818 h 8.6399993 V 25.581806 h 7.51999 0.42667 L 10.504706,35.9818 h 9.28 z m -1.06667,-11.78666 c 0,4.053331 -2.6666607,6.506663 -7.9466607,6.506663 h -7.03999 V 5.6884852 h 7.03999 c 5.28,0 7.9466607,2.399998 7.9466607,6.5066618 z m 41.28001,9.119995 -18.55999,-22.6666528 h -7.14666 V 35.9818 h 8.53333 V 13.315147 L 53.064716,35.9818 h 7.09333 V -1.3515108 h -8.53333 z M 105.97139,35.9818 89.278066,-1.3515108 h -8.53333 L 64.104746,35.9818 h 8.85333 l 3.30666,-7.999995 h 17.33332 l 3.30667,7.999995 z M 84.958066,7.1284842 l 5.92,14.2933238 h -11.84 z"
         id="path3" />
      <path
         style="font-family:'Oleo Script Swash Caps';-inkscape-font-specification:'Oleo Script Swash Caps';fill:#fb5f4c"
         d="m 123.73142,12.995147 q -0.10667,1.333332 -0.90667,3.093331 -2.02666,-0.213333 -3.84,-0.213333 h -0.95999 q -2.45334,11.893326 -2.45334,14.826658 0,1.546666 0.64,1.546666 0.69334,0 3.57333,-1.333333 l 0.96,1.759999 q -4.74666,3.946664 -8.79999,3.946664 -1.86667,0 -3.09333,-1.173332 -1.17334,-1.173333 -1.17334,-3.093332 0,-1.973332 0.42667,-4.426664 0.48,-2.453332 1.28,-5.973329 0.8,-3.573332 1.17333,-5.759997 -1.97333,0.16 -2.93333,0.32 -0.10667,-0.64 -0.10667,-1.706666 0,-1.119999 0.16,-1.813332 h 3.36 q 0.42667,-2.879998 0.42667,-5.4399968 l -0.0533,-1.653332 v -0.16 q 4.15999,-1.439999 7.83999,-1.439999 0.21333,1.066666 0.21333,2.666665 0,1.599999 -0.90666,6.0266628 z m 14.93332,0.906666 q 0.10667,-0.106667 0.58667,-1.386666 2.50666,0 6.71999,1.493333 -1.33333,4.426664 -2.13333,9.279994 -0.8,4.799997 -0.8,6.879996 0,2.026665 0.42667,2.026665 0.32,0 2.34666,-1.013332 l 0.64,-0.32 0.96,1.866665 q -0.48,0.426667 -1.28,1.066666 -0.74666,0.64 -2.87999,1.759999 -2.13334,1.066666 -3.84,1.066666 -3.30667,0 -3.84,-2.986664 -3.41333,2.986664 -6.18666,2.986664 -2.72,0 -4.64,-2.133332 -1.86667,-2.133332 -1.86667,-6.719996 0,-7.146662 2.93334,-11.253326 2.93333,-4.159998 7.09332,-4.159998 2.98667,0 5.76,1.546666 z m -6.08,18.186656 q 1.28,0 2.88,-1.013333 0.37334,-7.519995 2.50667,-14.879991 -1.6,-0.693333 -2.72,-0.693333 -1.92,0 -3.30666,3.786664 -1.33334,3.733332 -1.33334,8.266662 0,4.533331 1.97333,4.533331 z m 17.22664,4.053331 h -1.01334 q 0,-2.506665 1.49334,-9.599995 1.54666,-7.093329 1.54666,-8.053328 0,-1.759999 -1.49333,-3.733331 l -0.48,-0.64 0.0533,-0.693333 q 2.88,-0.799999 9.22666,-0.799999 0.69334,0.906666 0.74667,3.306664 4.64,-3.573331 7.84,-3.573331 1.91999,0 3.03999,1.333333 1.17334,1.333332 1.17334,3.359998 0,1.973332 -1.22667,6.879996 -1.22666,4.906663 -1.22666,6.613329 0,1.653332 0.42666,1.653332 0.32,0 2.24,-1.013332 l 0.64,-0.32 0.96,1.866665 q -0.48,0.426667 -1.28,1.066666 -0.8,0.64 -2.98666,1.759999 -2.13334,1.066666 -3.84,1.066666 -3.89333,0 -3.89333,-4.426664 0,-1.866665 1.17333,-6.879995 1.22666,-5.013331 1.22666,-6.45333 0,-1.439999 -0.90666,-1.439999 -1.54667,0 -3.78667,1.333332 -0.16,0.906667 -1.06666,4.799998 -1.86667,8.373328 -1.86667,11.839992 -1.86666,0.746667 -6.71999,0.746667 z m 39.35995,9.226661 q -1.97333,1.333332 -3.78667,1.919999 -1.81333,0.639999 -3.51999,0.639999 -1.70667,0 -2.77334,-0.959999 -1.06666,-0.959999 -1.06666,-2.773332 0,-1.759999 2.29333,-3.359998 2.29333,-1.599999 4.53333,-2.186665 l 2.29333,-0.533333 0.8,-4.266664 q -3.09333,2.346665 -5.97333,2.346665 -2.82666,0 -4.63999,-2.186665 -1.76,-2.186666 -1.76,-6.986663 0,-6.293329 2.82666,-10.453327 2.82667,-4.213331 7.46666,-4.213331 2.61334,0 5.17333,1.279999 2.72,-0.959999 5.86667,-0.959999 l 1.12,0.05333 q 0.16,0.64 0.16,1.813333 0,4.69333 -3.36,21.066654 -0.58667,3.359998 -2.13333,5.866663 -1.54667,2.559998 -3.52,3.893331 z m -0.90667,-29.866649 q -2.29333,0 -3.62666,3.733331 -1.33333,3.679998 -1.33333,8.213329 0,4.479997 2.02666,4.479997 1.33333,0 3.14667,-1.013333 1.49333,-8.959994 2.13333,-14.773324 -1.49333,-0.64 -2.34667,-0.64 z m -7.83999,28.58665 q 0,1.013332 1.17333,1.013332 1.22667,0 2.66666,-1.386665 1.44,-1.333333 2.29334,-3.306665 -1.76,0.213333 -3.94667,1.279999 -2.18666,1.119999 -2.18666,2.399999 z M 207.518,36.621799 q -3.68,0 -5.75999,-2.559998 -2.08,-2.613332 -2.08,-7.253329 0,-5.919997 3.14666,-10.186661 3.2,-4.266664 8.8,-4.266664 l 1.92,0.106667 q 0.90666,-0.48 2.02666,-0.48 4.21333,0 4.21333,7.946662 2.18667,-0.106667 4.42667,-0.586666 l 0.85333,-0.213333 0.32,2.079998 q -1.76,0.746667 -4.74667,1.333333 l -1.06666,0.213333 q -1.01333,5.599997 -4.10667,9.759994 -3.09333,4.106664 -7.94666,4.106664 z m 2.88,-4.586664 q 2.24,0 4,-2.879998 1.81333,-2.879998 2.50666,-6.079996 -5.70666,0 -5.70666,-4.266664 0,-1.706666 0.69333,-3.199998 l 0.26667,-0.533333 q -0.21333,-0.106667 -0.53333,-0.106667 -0.32,0 -0.48,0.106667 -1.33334,0.853332 -2.50667,3.999997 -1.17333,3.146665 -1.17333,7.199996 0,5.759996 2.93333,5.759996 z"
         id="path4" />
    </g>
  </g>
</svg>
